<?xml version="1.0" encoding="utf-8"?>
<!-- Generator: Adobe Illustrator 21.0.2, SVG Export Plug-In . SVG Version: 6.00 Build 0)  -->
<svg version="1.1" id="Layer_1" xmlns="http://www.w3.org/2000/svg" xmlns:xlink="http://www.w3.org/1999/xlink" x="0px" y="0px"
	 viewBox="0 0 100 100" style="enable-background:new 0 0 100 100;" xml:space="preserve">
<style type="text/css">
	.st0{fill:none;stroke:#fff;stroke-width:3;stroke-linecap:round;stroke-linejoin:round;stroke-miterlimit:10;}
</style>
<polyline class="st0" points="15.7,20.5 27.4,13.3 37.1,29 25.4,36.2 "/>
<path class="st0" d="M25.4,36.2L25.4,36.2c-4.4,2.7-5.8,8.5-3.1,13L37.6,74c2.7,4.4,9.1,5.8,13.5,3l11.3-7l9.7,15.7l-11.2,6.9
	c-12.8,7.9-31.2-3.4-43.5-23.3c-12.3-20-14.5-40.9-1.7-48.8"/>
<path class="st0" d="M50.2,29.3c6,0.4,11.8,3.5,15.4,8.9c3.4,5.2,4,11.5,2.2,17"/>
<path class="st0" d="M52.7,16.1c9.5,1.1,18.4,6.2,24,14.8c5.4,8.4,6.6,18.3,4.1,27.2"/>
<path class="st0" d="M55.2,4.4c12.5,1.7,24.1,8.6,31.5,20c7.3,11.2,8.9,24.3,5.7,36.2"/>
</svg>
