<?xml version="1.0" standalone="no"?>
<!DOCTYPE svg PUBLIC "-//W3C//DTD SVG 20010904//EN"
 "http://www.w3.org/TR/2001/REC-SVG-20010904/DTD/svg10.dtd">
<svg version="1.0" xmlns="http://www.w3.org/2000/svg"
 width="980.000000pt" height="842.000000pt" viewBox="0 0 980.000000 842.000000"
 preserveAspectRatio="xMidYMid meet">
<metadata>
Created by potrace 1.15, written by Peter Selinger 2001-2017
</metadata>
<g transform="translate(0.000000,842.000000) scale(0.100000,-0.100000)"
fill="#fff" stroke="none">
<path d="M2407 8394 c-150 -36 -307 -150 -392 -284 -16 -25 -450 -468 -966
-985 l-937 -940 -41 -85 c-94 -193 -94 -393 1 -590 l41 -85 736 -736 c728
-729 737 -737 819 -777 45 -23 118 -49 162 -58 l80 -17 2 -1646 3 -1646 23
-70 c59 -175 181 -319 333 -394 171 -83 -86 -76 2629 -76 l2415 0 78 23 c193
55 338 175 422 347 76 153 69 -7 73 1897 l2 1708 30 0 c48 0 181 47 248 87 47
29 238 214 773 748 391 391 724 729 741 753 152 219 155 517 7 737 -35 50
-315 336 -1006 1025 -1006 1003 -993 991 -1141 1049 l-67 26 -610 3 -610 3
-130 -65 c-242 -121 -501 -202 -796 -248 -194 -30 -637 -32 -824 -5 -317 48
-571 123 -812 242 l-151 75 -539 -1 c-424 0 -550 -4 -596 -15z m1041 -608
c276 -138 654 -246 1026 -293 208 -27 671 -24 884 5 333 45 628 127 914 254
l158 70 457 -2 458 -2 928 -927 c735 -734 927 -931 927 -951 0 -34 -1333
-1370 -1368 -1370 -16 0 -100 73 -280 244 l-257 244 -5 -2210 -5 -2210 -24
-19 c-23 -19 -74 -19 -2361 -19 l-2337 0 -27 21 -26 20 0 2130 c0 1171 -2
2129 -5 2129 -3 0 -119 -103 -257 -230 -191 -174 -258 -230 -278 -230 -37 0
-1370 1333 -1370 1370 0 20 195 220 947 972 530 530 953 960 960 977 26 62 17
61 465 61 l408 0 68 -34z"/>
</g>
</svg>
